# xmcd CD database file
#
# Track frame offsets:
#	150
#	22275
#	44850
#	63600
#	88500
#	112312
#	132800
#	154462
#	172915
#	195487
#	217275
#	237155
#
# Disc length: 3384 seconds
#
# Revision: 5
# Processed by: cddbd v1.5.2PL0 Copyright (c) Steve Scherf et al.
# Submitted via: CDex 1.70beta2
#
DISCID=ba0d360c
DTITLE=After 7 - Reflections
DYEAR=1995
DGENRE=R&B
TTITLE0='Till You Do Me Right
TTITLE1=Cryin' For It
TTITLE2=Save It Up
TTITLE3=Damn Thing Called Love
TTITLE4=How Did He Love You
TTITLE5=What U R 2 Me
TTITLE6=How Do You Tell The One
TTITLE7=Sprung On It
TTITLE8=How Could You Leave
TTITLE9=Givin Up This Good Thing
TTITLE10=I Like It Like That
TTITLE11=Honey (Oh How I Need You)
EXTD=YEAR: 1995
EXTT0=
EXTT1=
EXTT2=
EXTT3=
EXTT4=
EXTT5=
EXTT6=
EXTT7=
EXTT8=
EXTT9=
EXTT10=
EXTT11=
PLAYORDER=
